<?xml version="1.0" encoding="UTF-8"?><svg id="a" xmlns="http://www.w3.org/2000/svg" xmlns:xlink="http://www.w3.org/1999/xlink" viewBox="0 0 1303 407"><defs><style>.e,.f{fill:none;}.g{fill:#f5333f;}.h{fill:#002d5d;}.i{fill:#fff;}.f{stroke:#ee3d42;stroke-miterlimit:10;stroke-width:4.5px;}.j{clip-path:url(#c);}.k{clip-path:url(#b);}.l{clip-path:url(#d);}</style><clipPath id="b"><rect class="e" y="0" width="1303" height="407.07"/></clipPath><clipPath id="c"><rect class="e" y="0" width="1303" height="407.07"/></clipPath><clipPath id="d"><rect class="e" y="0" width="1303" height="407.07"/></clipPath></defs><g class="k"><path class="i" d="M257.89,14.79c-68.13-27.36-108.97-7.34-112.08-5.98C145.72,9.07,.31,132.52,.31,132.52c0,0,29.12,3.42,51.77,25.04,28.05,26.77,33.59,61.56,33.59,61.56"/></g><path class="i" d="M354.42,82.64c-4.01-4.01-40.49-44.87-88.03-63.81l-52.58,63.65"/><path class="g" d="M0,132.51s26.36,3.39,47.98,21.52c31.24,26.19,37.45,65.8,37.45,65.8l24.15-29.07s-10.68-32.74-38.24-55.87c-29.21-24.5-49.65-20.63-49.65-20.63"/><path class="g" d="M153.16,139.18s-13.96-28.28-44.22-44.79c-30.26-16.51-52.15-9.92-52.15-9.92l-19.63,16.68s28.13-1.3,50.87,15.6c32.07,23.84,41.18,50.82,41.18,50.82"/><path class="g" d="M308.24,82.64h46.25c-1.11-1.18-1.87-2.02-3.13-3.37-26.28-27.95-51.97-47.26-84.82-60.61l-18.82,22.58c33.79,9.74,59.75,40.6,60.52,41.4"/><g class="j"><path class="g" d="M270.96,82.66c-9-12.06-26.18-20.36-37.49-24.02l-20.06,24.03"/><path class="h" d="M258.52,14.79c-64.31-27.11-106.42-9.24-112.86-6.28-.17,.34-72.59,62.08-72.59,62.08,0,0,22.91-5.79,52.51,7.15,34.68,15.17,46.37,39.28,46.37,39.28"/></g><path class="h" d="M376.64,174.84c10.51-8.9,16.59-20.54,16.59-33.93,0-30.88-26.16-49.64-51.42-49.64h-88.88v186.36s41.53-.13,98.17-.13c27.34,0,50.09-21.74,50.09-59.41,0-19.09-9.44-33.6-24.55-43.25h0Zm-79.91-44.63s29.55-.09,32.83-.09c4.56,0,17.1,.37,17.1,15.5s-13.48,15.09-17.45,15.09c-2.39,0-32.48-.08-32.48-.08v-30.42h0Zm38.95,108.23c-1.75,0-38.95-.2-38.95-.2v-38.57h39.22c1.7,0,19.84,.32,19.84,18.99s-14.06,19.78-20.1,19.78"/><path class="h" d="M206.64,91.29L49.25,277.5h54.28l25.81-32.95h72.36v33.03h41.46V91.29h-36.51Zm-4.3,59.75v54.51h-43.66"/><path class="i" d="M194.97,65.49c-.06-.04-5.37-3.24-11.08-6.08,2.45-3.53,5.08-7.3,5.08-7.3,.03-.06,.05-.12,.05-.19s-.02-.13-.06-.2c-.08-.11-.23-.15-.36-.11-.08,.03-6.67,2.18-12.51,4.4-5.46-2.04-10.83-3.51-10.9-3.53-.11-.03-.22,0-.3,.07-.07,.06-.1,.15-.1,.24v.06s.76,3.98,1.45,7.66c-6,3.3-12.76,7.64-12.85,7.69-.09,.06-.15,.17-.15,.27,0,.04,0,.07,.02,.1,.04,.14,.18,.23,.33,.22,0,0,8.16-.38,14.09-.67,1.21,6.85,1.82,12.67,1.82,12.74,.01,.14,.12,.25,.26,.28,.14,.03,.28-.04,.35-.16,.04-.08,3.92-6.97,8.26-13.54,5.64-.47,16.48-1.37,16.48-1.37,.14-.01,.25-.11,.28-.25,0-.02,0-.05,0-.07,0-.11-.06-.22-.16-.27"/><path class="i" d="M237.38,30.59c-.07-.03-6.04-2.5-11.93-4.57,2.23-3.29,4.54-6.69,4.54-6.69,.04-.05,.05-.11,.05-.18,0-.06-.02-.13-.06-.18-.08-.11-.22-.16-.35-.12-.08,.02-7.33,2.13-13.31,4.39-5.94-1.54-11.97-2.77-12.05-2.79-.12-.02-.25,.03-.33,.14-.03,.05-.05,.12-.05,.18,0,.06,.02,.12,.06,.18,0,.02,1.43,2.21,3.06,6.91-5.92,3.61-12.37,8.3-12.45,8.36-.09,.06-.14,.16-.14,.26,0,.04,.01,.08,.03,.12,.05,.14,.2,.22,.34,.2,.09-.02,7.05-1.03,14.26-1.76,1.55,6.37,2.27,11.01,2.27,11.06,.02,.13,.12,.23,.25,.26,.13,.03,.27-.03,.34-.14,0,0,5.57-8.36,8.1-12.17,8.18-.96,17.21-2.85,17.31-2.86,.14-.03,.25-.15,.26-.29v-.03c0-.13-.08-.24-.2-.29"/><path class="i" d="M144.24,47.37c-.02-.14-.14-.27-.28-.28-.07,0-4.88-.55-10.34-.84,2.33-2.94,4.66-5.87,4.66-5.87,.05-.06,.07-.13,.07-.2s-.02-.14-.07-.2c-.09-.11-.25-.15-.4-.09-.08,.05-6.8,3.23-12.59,6.24-3.73,.06-11.82,.2-11.82,.2-.15,0-.26,.1-.3,.23,0,.03,0,.06,0,.08,0,.11,.06,.22,.15,.28,.03,.01,1.73,1.21,3.2,4-4.83,2.68-15.46,8.61-15.46,8.61-.11,.05-.17,.16-.17,.28,0,.04,0,.08,.03,.12,.07,.15,.23,.23,.39,.19,8.76-2.52,12.65-3.29,15.49-3.87,0,0,.91-.21,1.47-.35,1,4.17,1.07,7.74,1.07,7.78,0,.14,.08,.26,.22,.31,.13,.05,.28,0,.36-.11,0,0,6.98-9.07,8.28-10.75,7.86-2.52,15.73-5.37,15.83-5.41,.13-.04,.21-.16,.21-.3v-.04"/><path class="i" d="M186.84,18.6c-.02-.15-.15-.27-.3-.27,0,0-6.21-.19-10.71-.33,2.5-3.17,5.05-6.38,5.05-6.38,.05-.06,.07-.13,.07-.2s-.02-.14-.07-.2c-.09-.12-.25-.15-.38-.09-.1,.05-7.67,3.64-13.68,6.8-6.74,.18-11.3,.8-11.36,.81-.16,.03-.28,.16-.28,.32s.12,.29,.28,.32c.1,0,2.11,.48,3.67,3.02-5.27,3.41-10.8,7.51-10.86,7.57-.09,.06-.13,.15-.13,.25,0,.05,0,.09,.03,.14,.07,.14,.23,.21,.38,.17,0,0,12.17-3.25,12.35-3.3,.98,4.13,1.04,7.65,1.04,7.69,0,.14,.09,.26,.22,.3,.13,.05,.27,0,.35-.11,0,0,6.99-9.06,8.29-10.75,7.86-2.53,15.73-5.37,15.82-5.41,.13-.05,.22-.17,.22-.3,0-.02,0-.03,0-.05"/><path class="h" d="M534.49,116.82c8.12,12.47,13.98,25.88,14.36,41.37h-41.57c-2.27-11.14-12.23-22.13-23.38-24.78-11.9-3.78-24.78,.79-32.9,10.23-14.55,16.81-15.52,43.94-9.45,64.41,2.82,9.51,9.07,19.27,18.51,24.37,9.45,5.1,23.55,4.72,32.04-2.27,8.69-7.37,12.66-16.62,14.93-26.63h41.43c-1.32,30.03-18.13,61.2-47.98,72.54-29.85,9.26-64.04,3.4-84.44-21.35-28.14-34.38-28.33-92.56-6.8-130.15,16.62-27.39,45.71-39.1,77.64-35.33,18.33,3.02,35.52,10.77,47.61,27.58"/><path class="h" d="M544.78,270.16h2.01c.96,0,1.62-.15,1.97-.43,.35-.29,.53-.67,.53-1.14,0-.3-.09-.57-.26-.82-.17-.24-.41-.42-.7-.54-.31-.12-.86-.18-1.67-.18h-1.89v3.1h0Zm-1.66,5.79v-10.29h3.53c1.21,0,2.08,.1,2.62,.28,.54,.2,.97,.53,1.29,1,.32,.47,.48,.98,.48,1.51,0,.75-.27,1.4-.8,1.96-.54,.56-1.25,.87-2.13,.94,.36,.15,.65,.33,.87,.55,.41,.41,.92,1.09,1.52,2.04l1.25,2.02h-2.03l-.91-1.62c-.72-1.27-1.3-2.07-1.74-2.39-.3-.24-.75-.36-1.33-.36h-.97v4.37h-1.66Zm4.19-13.27c-1.34,0-2.65,.35-3.92,1.03-1.27,.69-2.27,1.67-2.98,2.96-.72,1.27-1.08,2.61-1.08,3.99s.35,2.7,1.05,3.96c.7,1.26,1.69,2.25,2.96,2.95,1.27,.71,2.59,1.06,3.97,1.06s2.7-.35,3.97-1.06c1.26-.7,2.25-1.68,2.95-2.95,.71-1.26,1.06-2.58,1.06-3.96s-.36-2.72-1.07-3.99c-.72-1.28-1.71-2.26-2.99-2.96-1.27-.68-2.57-1.03-3.91-1.03h0Zm0-1.58c1.61,0,3.17,.41,4.7,1.24,1.53,.82,2.72,2,3.57,3.53,.86,1.54,1.28,3.13,1.28,4.8s-.42,3.23-1.26,4.75c-.85,1.52-2.02,2.7-3.53,3.54-1.52,.84-3.1,1.26-4.76,1.26s-3.25-.42-4.75-1.26c-1.52-.84-2.7-2.02-3.54-3.54-.85-1.52-1.27-3.1-1.27-4.75s.43-3.26,1.29-4.8c.86-1.53,2.05-2.71,3.58-3.53,1.53-.83,3.1-1.24,4.7-1.24h0Z"/><g class="l"><line class="f" x1="52.58" y1="318.31" x2="1302.8" y2="318.31"/></g><path class="h" d="M78.68,386.03l-7.21-22.19-7.71,22.19h14.92Zm-.29-32.43l18.09,52.1h-11.24l-3.75-11.24h-20.61l-3.89,11.24h-10.67l18.81-52.1h13.26Z"/><path class="h" d="M109.79,395.18c.14,2.31,1.58,4.97,6.05,4.97,3.82,0,5.62-2.16,5.62-4.32,0-1.66-.87-2.95-5.04-4.11l-6.63-1.8c-2.95-.86-9.22-2.67-9.22-10.09s6.48-11.39,15.92-11.39c7.5,0,13.54,3.46,13.83,10.74h-9.73c-.29-4.03-3.53-4.32-5.19-4.32-2.88,0-5.04,1.37-5.04,3.6,0,2.45,1.8,2.95,4.97,3.82l6.55,1.8c6.63,1.8,9.73,5.19,9.73,10.16,0,6.27-5.4,12.54-16.72,12.54-4.68,0-9.15-1.01-12.46-4.47-2.38-2.52-2.59-5.4-2.67-7.13h10.02Z"/><path class="h" d="M146.96,395.18c.14,2.31,1.58,4.97,6.05,4.97,3.82,0,5.62-2.16,5.62-4.32,0-1.66-.87-2.95-5.04-4.11l-6.63-1.8c-2.95-.86-9.22-2.67-9.22-10.09s6.48-11.39,15.92-11.39c7.5,0,13.54,3.46,13.84,10.74h-9.73c-.29-4.03-3.53-4.32-5.19-4.32-2.88,0-5.04,1.37-5.04,3.6,0,2.45,1.8,2.95,4.97,3.82l6.55,1.8c6.63,1.8,9.73,5.19,9.73,10.16,0,6.27-5.4,12.54-16.72,12.54-4.68,0-9.15-1.01-12.46-4.47-2.38-2.52-2.59-5.4-2.67-7.13h10.02Z"/><path class="h" d="M192.55,399.58c4.69,0,7.86-2.81,7.86-12.47,0-4.83-.94-11.53-8-11.53-7.78,0-7.85,9.01-7.85,12.32,0,8.14,2.74,11.67,8,11.67h0Zm-.15-31.13c13.19,0,18.88,8.94,18.88,19.09s-5.91,19.46-19.1,19.46c-10.38,0-18.59-6.41-18.59-19.17,0-8.79,4.47-19.38,18.81-19.38h0Z"/><path class="h" d="M239.66,382.21c-.14-1.3-.58-6.7-4.69-6.7-5.04,0-5.62,7.64-5.62,11.6,0,2.02,.22,8.5,2.66,11.17,1.01,1.08,2.09,1.22,2.88,1.22,1.15,0,4.47-.51,4.9-6.99h10.52c-.14,2.81-.5,7.21-4.68,10.74-2.59,2.24-5.84,3.39-10.37,3.39-4.83,0-9.08-1.08-12.39-4.83-3.17-3.68-4.61-8.5-4.61-14.34,0-16.57,12.18-18.88,17-18.88,6.77,0,14.77,3.75,14.84,13.62h-10.45Z"/><path class="h" d="M256.15,369.24h10.67v36.46h-10.67v-36.46h0Zm-.36-15.57h11.39v9.3h-11.39v-9.3h0Z"/><path class="h" d="M286.05,394.46c0,2.45,1.66,5.19,5.19,5.19,1.94,0,3.53-.94,4.54-2.09,1.88-2.31,2.02-5.12,2.02-9.01-6.84-.58-11.74,1.59-11.74,5.91h0Zm13.11,11.24c-.36-2.23-.36-3.89-.36-4.97-4.04,5.84-8.86,5.84-10.88,5.84-5.26,0-7.64-1.51-9.08-2.88-2.16-2.16-3.17-5.12-3.17-8s1.01-8.21,7.71-11.31c4.47-2.02,10.88-2.02,14.41-2.02,0-2.38-.07-3.53-.5-4.83-.94-2.67-3.75-3.03-4.76-3.03-1.51,0-3.1,.65-4.04,2.02-.79,1.22-.79,2.38-.79,3.24h-10.45c.07-1.95,.29-5.84,4.11-8.57,3.31-2.38,7.57-2.95,11.03-2.95,3.02,0,9.37,.5,12.97,4.68,2.45,2.95,2.52,7.28,2.52,8.93l.07,14.63c0,3.1,.22,6.2,.87,9.22h-9.65Z"/><path class="h" d="M338.48,405.2c-3.46,.94-6.55,1.15-8.29,1.15-10.74,0-10.74-6.77-10.74-9.8v-19.96h-6.99v-7.06h6.99v-7.13l10.59-3.89v11.03h8.65v7.06h-8.65v16.43c.07,3.31,.07,5.41,4.83,5.41,1.58,0,2.3-.07,3.6-.22v6.99h0Z"/><path class="h" d="M366.93,383.51c0-1.66-.14-8.14-6.34-8.14-4.68,0-6.63,3.89-6.84,8.14h13.18Zm-13.54,6.7c0,2.38,0,9.73,7.42,9.73,2.67,0,5.33-1.01,6.34-5.04h9.73c-.15,1.73-.51,4.83-3.46,7.93-2.66,2.81-7.42,4.25-12.75,4.25-3.09,0-9.01-.58-12.82-4.54-3.31-3.46-4.69-8.36-4.69-14.2s1.44-12.97,7.57-17.22c2.81-1.87,6.27-3.03,10.23-3.03,5.19,0,11.39,2.02,14.7,8.79,2.45,4.97,2.3,10.3,2.16,13.33h-24.43Z"/><path class="h" d="M400.5,399.51c3.1,0,5.62-1.87,6.77-4.11,1.59-3.03,1.73-6.77,1.73-8.57,0-7.13-3.1-11.02-7.93-11.02-7.13,0-7.93,8.57-7.93,12.25,0,6.05,2.02,11.46,7.35,11.46h0Zm8.14-45.83h10.74v46.12c0,2.16,.15,4.54,.29,5.91h-10.81l-.29-5.26c-.72,1.3-1.44,2.67-3.67,4.11-2.67,1.73-5.48,1.87-7.06,1.87-9.72,0-15.49-6.7-15.49-18.09,0-12.03,6.56-19.53,16.07-19.53,6.56,0,9.3,3.68,10.23,4.97v-20.1h0Z"/><path class="h" d="M460.35,397.34h7.56c5.12,0,10.88,0,10.88-6.99,0-7.42-6.7-7.42-12.03-7.42h-6.41v14.41h0Zm0-22.48h7.78c3.17,0,8.94,0,8.94-6.7s-5.48-6.48-9.16-6.48h-7.56v13.19h0Zm-10.66-21.19h19.45c3.03,0,8.86,0,12.83,2.45,4.75,3.03,5.83,8.07,5.83,11.1,0,1.95-.36,5.33-3.02,7.78-.36,.43-2.89,2.74-5.91,3.53v.15c7.93,1.44,11.02,7.21,11.02,12.68,0,6.12-3.61,10.23-7.64,12.25-4.03,2.09-11.1,2.09-13.11,2.09h-19.45v-52.03h0Z"/><path class="h" d="M509.11,369.31v21.69c0,3.17,0,8,5.69,8,6.85,0,6.85-5.11,6.85-11.31v-18.38h10.95v24c.14,7.85,.22,8.79,.22,9.73,.07,1.01,.14,1.66,.29,2.67h-10.38l-.36-4.83c-1.08,1.58-3.82,5.76-10.74,5.76-4.9,0-8.94-2.23-10.95-4.9-2.38-2.95-2.38-8-2.38-9.8v-22.63h10.81Z"/><path class="h" d="M542.38,369.24h10.67v36.46h-10.67v-36.46h0Zm-.36-15.57h11.39v9.3h-11.39v-9.3h0Z"/><polygon class="h" points="563.56 353.61 574.23 353.61 574.23 405.7 563.56 405.7 563.56 353.61 563.56 353.61"/><path class="h" d="M599.22,399.51c3.1,0,5.62-1.87,6.77-4.11,1.59-3.03,1.73-6.77,1.73-8.57,0-7.13-3.1-11.02-7.93-11.02-7.14,0-7.92,8.57-7.92,12.25,0,6.05,2.02,11.46,7.35,11.46h0Zm8.14-45.83h10.74v46.12c0,2.16,.14,4.54,.29,5.91h-10.81l-.29-5.26c-.72,1.3-1.44,2.67-3.67,4.11-2.67,1.73-5.48,1.87-7.06,1.87-9.73,0-15.49-6.7-15.49-18.09,0-12.03,6.56-19.53,16.07-19.53,6.56,0,9.3,3.68,10.23,4.97v-20.1h0Z"/><path class="h" d="M650.58,383.51c0-1.66-.14-8.14-6.34-8.14-4.68,0-6.63,3.89-6.84,8.14h13.19Zm-13.55,6.7c0,2.38,0,9.73,7.42,9.73,2.67,0,5.33-1.01,6.34-5.04h9.73c-.15,1.73-.51,4.83-3.46,7.93-2.67,2.81-7.42,4.25-12.75,4.25-3.09,0-9-.58-12.83-4.54-3.31-3.46-4.69-8.36-4.69-14.2s1.45-12.97,7.57-17.22c2.81-1.87,6.27-3.03,10.24-3.03,5.19,0,11.38,2.02,14.7,8.79,2.45,4.97,2.3,10.3,2.16,13.33h-24.43Z"/><path class="h" d="M668.22,378.25c0-1.73-.29-6.99-.5-9.08h10.02l.22,6.99c1.37-3.1,3.75-7.5,12.39-7.06v9.58c-10.81-1.01-11.46,4.54-11.46,9.08v17.94h-10.66v-27.45h0Z"/><path class="h" d="M703.37,395.18c.14,2.31,1.58,4.97,6.05,4.97,3.82,0,5.62-2.16,5.62-4.32,0-1.66-.86-2.95-5.04-4.11l-6.63-1.8c-2.95-.86-9.22-2.67-9.22-10.09s6.49-11.39,15.92-11.39c7.5,0,13.55,3.46,13.84,10.74h-9.73c-.29-4.03-3.53-4.32-5.19-4.32-2.88,0-5.04,1.37-5.04,3.6,0,2.45,1.8,2.95,4.97,3.82l6.55,1.8c6.63,1.8,9.73,5.19,9.73,10.16,0,6.27-5.4,12.54-16.72,12.54-4.68,0-9.15-1.01-12.47-4.47-2.38-2.52-2.59-5.4-2.67-7.13h10.02Z"/><path class="h" d="M763.01,394.46c0,2.45,1.66,5.19,5.19,5.19,1.94,0,3.53-.94,4.53-2.09,1.88-2.31,2.02-5.12,2.02-9.01-6.85-.58-11.74,1.59-11.74,5.91h0Zm13.11,11.24c-.36-2.23-.36-3.89-.36-4.97-4.03,5.84-8.86,5.84-10.88,5.84-5.26,0-7.64-1.51-9.08-2.88-2.17-2.16-3.17-5.12-3.17-8s1.01-8.21,7.71-11.31c4.47-2.02,10.88-2.02,14.41-2.02,0-2.38-.07-3.53-.5-4.83-.94-2.67-3.75-3.03-4.75-3.03-1.51,0-3.1,.65-4.04,2.02-.79,1.22-.79,2.38-.79,3.24h-10.45c.07-1.95,.29-5.84,4.11-8.57,3.32-2.38,7.57-2.95,11.02-2.95,3.03,0,9.37,.5,12.97,4.68,2.45,2.95,2.53,7.28,2.53,8.93l.07,14.63c0,3.1,.22,6.2,.87,9.22h-9.66Z"/><path class="h" d="M794.19,375.8c0-.14,0-4.11-.22-6.63h10.23l.29,5.48c1.01-1.66,3.89-6.34,11.82-6.34,7.14,0,10.16,4.32,11.1,6.84,.8,2.23,1.01,4.11,1.01,10.88v19.67h-10.88v-22.63c0-1.51,0-2.81-.57-3.96-.8-1.58-2.45-3.1-5.2-3.1-2.3,0-4.39,1.08-5.55,2.81-.65,.94-1.3,2.74-1.3,5.55v21.33h-10.74v-29.9h0Z"/><path class="h" d="M855.13,399.51c3.1,0,5.62-1.87,6.77-4.11,1.59-3.03,1.73-6.77,1.73-8.57,0-7.13-3.1-11.02-7.93-11.02-7.14,0-7.93,8.57-7.93,12.25,0,6.05,2.02,11.46,7.35,11.46h0Zm8.14-45.83h10.73v46.12c0,2.16,.15,4.54,.29,5.91h-10.81l-.29-5.26c-.72,1.3-1.44,2.67-3.67,4.11-2.67,1.73-5.48,1.87-7.07,1.87-9.72,0-15.49-6.7-15.49-18.09,0-12.03,6.56-19.53,16.07-19.53,6.56,0,9.3,3.68,10.24,4.97v-20.1h0Z"/><path class="h" d="M933.72,370.61c-.22-1.8-.86-9.15-8.43-9.15-8.29,0-11.74,8.65-11.74,19.38,0,3.1,0,17.87,10.88,17.87,4.68,0,9.15-2.95,9.36-9.87h11.75c-.22,3.1-.5,7.93-4.68,12.25-4.61,4.76-10.45,5.84-15.21,5.84-17.94,0-23.78-13.26-23.78-26.16,0-16.5,9.22-27.45,23.85-27.45,11.38,0,19.38,6.92,19.38,17.29h-11.38Z"/><path class="h" d="M969.15,399.58c4.69,0,7.86-2.81,7.86-12.47,0-4.83-.94-11.53-8-11.53-7.78,0-7.85,9.01-7.85,12.32,0,8.14,2.74,11.67,8,11.67h0Zm-.14-31.13c13.19,0,18.88,8.94,18.88,19.09s-5.91,19.46-19.1,19.46c-10.38,0-18.59-6.41-18.59-19.17,0-8.79,4.47-19.38,18.81-19.38h0Z"/><path class="h" d="M997.16,375.8c0-.14,0-4.11-.22-6.63h10.23l.29,5.48c1.01-1.66,3.89-6.34,11.82-6.34,7.14,0,10.16,4.32,11.1,6.84,.8,2.23,1.01,4.11,1.01,10.88v19.67h-10.88v-22.63c0-1.51,0-2.81-.58-3.96-.79-1.58-2.45-3.1-5.19-3.1-2.3,0-4.39,1.08-5.55,2.81-.65,.94-1.3,2.74-1.3,5.55v21.33h-10.74v-29.9h0Z"/><path class="h" d="M1062.14,405.2c-3.45,.94-6.55,1.15-8.28,1.15-10.74,0-10.74-6.77-10.74-9.8v-19.96h-6.99v-7.06h6.99v-7.13l10.59-3.89v11.03h8.65v7.06h-8.65v16.43c.07,3.31,.07,5.41,4.83,5.41,1.58,0,2.3-.07,3.6-.22v6.99h0Z"/><path class="h" d="M1069.91,378.25c0-1.73-.28-6.99-.5-9.08h10.01l.22,6.99c1.37-3.1,3.75-7.5,12.39-7.06v9.58c-10.8-1.01-11.46,4.54-11.46,9.08v17.94h-10.66v-27.45h0Z"/><path class="h" d="M1104.92,394.46c0,2.45,1.66,5.19,5.19,5.19,1.94,0,3.53-.94,4.54-2.09,1.88-2.31,2.02-5.12,2.02-9.01-6.85-.58-11.74,1.59-11.74,5.91h0Zm13.11,11.24c-.36-2.23-.36-3.89-.36-4.97-4.03,5.84-8.86,5.84-10.88,5.84-5.26,0-7.64-1.51-9.08-2.88-2.17-2.16-3.17-5.12-3.17-8s1.01-8.21,7.71-11.31c4.47-2.02,10.88-2.02,14.41-2.02,0-2.38-.07-3.53-.5-4.83-.94-2.67-3.75-3.03-4.75-3.03-1.51,0-3.1,.65-4.04,2.02-.79,1.22-.79,2.38-.79,3.24h-10.45c.07-1.95,.29-5.84,4.11-8.57,3.32-2.38,7.57-2.95,11.03-2.95,3.02,0,9.37,.5,12.96,4.68,2.45,2.95,2.53,7.28,2.53,8.93l.07,14.63c0,3.1,.22,6.2,.86,9.22h-9.66Z"/><path class="h" d="M1156.64,382.21c-.15-1.3-.58-6.7-4.69-6.7-5.04,0-5.62,7.64-5.62,11.6,0,2.02,.21,8.5,2.66,11.17,1.01,1.08,2.09,1.22,2.89,1.22,1.15,0,4.47-.51,4.9-6.99h10.52c-.14,2.81-.51,7.21-4.69,10.74-2.59,2.24-5.84,3.39-10.38,3.39-4.83,0-9.08-1.08-12.39-4.83-3.17-3.68-4.61-8.5-4.61-14.34,0-16.57,12.18-18.88,17-18.88,6.78,0,14.77,3.75,14.84,13.62h-10.44Z"/><path class="h" d="M1194.52,405.2c-3.46,.94-6.55,1.15-8.29,1.15-10.74,0-10.74-6.77-10.74-9.8v-19.96h-6.99v-7.06h6.99v-7.13l10.6-3.89v11.03h8.65v7.06h-8.65v16.43c.07,3.31,.07,5.41,4.83,5.41,1.58,0,2.3-.07,3.6-.22v6.99h0Z"/><path class="h" d="M1218.15,399.58c4.69,0,7.86-2.81,7.86-12.47,0-4.83-.94-11.53-8-11.53-7.78,0-7.86,9.01-7.86,12.32,0,8.14,2.74,11.67,8,11.67h0Zm-.14-31.13c13.19,0,18.88,8.94,18.88,19.09s-5.91,19.46-19.1,19.46c-10.38,0-18.59-6.41-18.59-19.17,0-8.79,4.47-19.38,18.81-19.38h0Z"/><path class="h" d="M1244.57,378.25c0-1.73-.29-6.99-.5-9.08h10.01l.22,6.99c1.37-3.1,3.75-7.5,12.39-7.06v9.58c-10.8-1.01-11.46,4.54-11.46,9.08v17.94h-10.66v-27.45h0Z"/><path class="h" d="M1281.17,395.18c.14,2.31,1.58,4.97,6.05,4.97,3.82,0,5.62-2.16,5.62-4.32,0-1.66-.87-2.95-5.05-4.11l-6.63-1.8c-2.95-.86-9.22-2.67-9.22-10.09s6.48-11.39,15.92-11.39c7.5,0,13.55,3.46,13.83,10.74h-9.73c-.28-4.03-3.53-4.32-5.19-4.32-2.89,0-5.04,1.37-5.04,3.6,0,2.45,1.8,2.95,4.97,3.82l6.55,1.8c6.63,1.8,9.73,5.19,9.73,10.16,0,6.27-5.4,12.54-16.72,12.54-4.68,0-9.15-1.01-12.46-4.47-2.38-2.52-2.59-5.4-2.67-7.13h10.02Z"/><path class="g" d="M624.7,108.35c-.08-1.49-.16-3.53-1.57-5.72-2.35-3.76-6.82-4.39-9.48-4.39-13.8,0-16.54,12.85-16.54,21.55,0,3.84,.55,10.74,4.7,15.2,2.82,3.14,6.59,4.86,13.33,4.86,5.87,0,7.91-.71,9.24-1.1v-11.91h-10.97v-9.41h23.12v28.29c-3.53,1.18-9.33,3.13-20.69,3.13-12.93,0-19.6-3.13-24.06-7.52-6.35-6.19-7.53-15.21-7.53-21.16,0-20.06,12.54-30.8,29.71-30.8,7.29,0,14.82,2.04,19.28,7.13,3.76,4.31,4,8.78,4.07,11.83h-12.61Z"/><path class="g" d="M645.43,117.76c0-1.88-.31-7.6-.55-9.88h10.89l.24,7.6c1.49-3.37,4.07-8.15,13.48-7.68v10.42c-11.76-1.1-12.47,4.94-12.47,9.88v19.51h-11.6v-29.86h0Z"/><path class="g" d="M698.29,123.48c0-1.8-.16-8.86-6.9-8.86-5.1,0-7.21,4.23-7.44,8.86h14.34Zm-14.73,7.29c0,2.59,0,10.58,8.08,10.58,2.89,0,5.8-1.1,6.9-5.49h10.58c-.16,1.88-.54,5.25-3.76,8.62-2.9,3.06-8.08,4.62-13.87,4.62-3.37,0-9.8-.63-13.95-4.94-3.61-3.76-5.1-9.09-5.1-15.44s1.57-14.11,8.23-18.73c3.06-2.04,6.82-3.29,11.13-3.29,5.65,0,12.38,2.2,15.99,9.56,2.67,5.41,2.51,11.21,2.35,14.5h-26.57Z"/><path class="g" d="M725.66,135.4c0,2.66,1.81,5.64,5.65,5.64,2.12,0,3.84-1.02,4.94-2.27,2.03-2.51,2.19-5.57,2.19-9.8-7.45-.63-12.78,1.72-12.78,6.43h0Zm14.27,12.23c-.39-2.43-.39-4.23-.39-5.41-4.39,6.35-9.64,6.35-11.84,6.35-5.72,0-8.31-1.65-9.88-3.13-2.35-2.35-3.44-5.57-3.44-8.7s1.09-8.94,8.38-12.31c4.86-2.2,11.84-2.2,15.68-2.2,0-2.58-.08-3.84-.55-5.25-1.02-2.9-4.07-3.29-5.17-3.29-1.65,0-3.37,.71-4.39,2.19-.86,1.33-.86,2.59-.86,3.53h-11.37c.08-2.12,.32-6.35,4.47-9.33,3.6-2.59,8.23-3.21,11.99-3.21,3.29,0,10.19,.55,14.1,5.09,2.67,3.21,2.75,7.92,2.75,9.72l.08,15.91c0,3.37,.23,6.74,.94,10.03h-10.5Z"/><path class="g" d="M781.5,147.07c-3.76,1.02-7.14,1.26-9.01,1.26-11.68,0-11.68-7.37-11.68-10.66v-21.71h-7.6v-7.68h7.6v-7.76l11.52-4.23v11.99h9.4v7.68h-9.4v17.87c.08,3.61,.08,5.88,5.25,5.88,1.72,0,2.51-.08,3.92-.24v7.6h0Z"/><path class="g" d="M810.61,123.48c0-1.8-.16-8.86-6.9-8.86-5.1,0-7.21,4.23-7.44,8.86h14.34Zm-14.73,7.29c0,2.59,0,10.58,8.08,10.58,2.89,0,5.8-1.1,6.9-5.49h10.58c-.15,1.88-.54,5.25-3.76,8.62-2.9,3.06-8.08,4.62-13.87,4.62-3.37,0-9.8-.63-13.95-4.94-3.61-3.76-5.1-9.09-5.1-15.44s1.57-14.11,8.23-18.73c3.06-2.04,6.82-3.29,11.13-3.29,5.65,0,12.38,2.2,15.99,9.56,2.67,5.41,2.51,11.21,2.35,14.5h-26.57Z"/><path class="g" d="M828.72,117.76c0-1.88-.31-7.6-.55-9.88h10.89l.23,7.6c1.49-3.37,4.08-8.15,13.48-7.68v10.42c-11.76-1.1-12.47,4.94-12.47,9.88v19.51h-11.6v-29.86h0Z"/><path class="g" d="M616.39,261.09h17.07c11.54,0,24.55,0,24.55-15.77,0-16.75-15.12-16.75-27.15-16.75h-14.47v32.52h0Zm0-50.73h17.56c7.15,0,20.16,0,20.16-15.12s-12.36-14.63-20.65-14.63h-17.07v29.75h0Zm-24.07-47.8h43.9c6.83,0,20,0,28.94,5.53,10.73,6.83,13.17,18.21,13.17,25.04,0,4.39-.81,12.03-6.83,17.56-.81,.98-6.5,6.18-13.33,7.97v.33c17.89,3.25,24.87,16.26,24.87,28.61,0,13.82-8.13,23.09-17.23,27.64-9.1,4.71-25.04,4.71-29.59,4.71h-43.9v-117.39h0Z"/><path class="g" d="M714.74,254.58c0,5.53,3.74,11.71,11.7,11.71,4.39,0,7.97-2.11,10.25-4.71,4.23-5.2,4.55-11.54,4.55-20.33-15.45-1.3-26.5,3.58-26.5,13.33h0Zm29.59,25.36c-.81-5.04-.81-8.78-.81-11.22-9.1,13.17-20,13.17-24.55,13.17-11.87,0-17.24-3.42-20.49-6.5-4.88-4.88-7.16-11.54-7.16-18.05s2.28-18.53,17.4-25.53c10.08-4.55,24.55-4.55,32.52-4.55,0-5.37-.16-7.97-1.14-10.89-2.11-6.02-8.46-6.83-10.73-6.83-3.42,0-7,1.46-9.11,4.55-1.79,2.76-1.79,5.37-1.79,7.32h-23.58c.16-4.39,.65-13.17,9.27-19.35,7.48-5.37,17.07-6.67,24.88-6.67,6.83,0,21.14,1.14,29.27,10.57,5.53,6.67,5.69,16.42,5.69,20.16l.16,33.01c0,6.99,.49,13.98,1.95,20.81h-21.79Z"/><polygon class="g" points="780.58 162.39 804.64 162.39 804.64 279.95 780.58 279.95 780.58 162.39 780.58 162.39"/><path class="g" d="M870.35,278.81c-7.8,2.11-14.79,2.6-18.7,2.6-24.23,0-24.23-15.28-24.23-22.11v-45.04h-15.77v-15.93h15.77v-16.1l23.9-8.78v24.88h19.51v15.93h-19.51v37.07c.17,7.48,.17,12.2,10.89,12.2,3.58,0,5.21-.16,8.13-.49v15.77h0Z"/><path class="g" d="M880.51,197.67h24.07v82.27h-24.07v-82.27h0Zm-.81-35.12h25.69v20.97h-25.69v-20.97h0Z"/><path class="g" d="M921.43,213.28c0-5.2-.33-10.24-.81-15.45h23.25l.81,10.57c2.6-3.58,8.94-12.36,25.36-12.36,18.86,0,24.23,11.54,25.86,15.45,6.82-13.17,17.88-15.28,26.34-15.28,16.59,0,23.25,9.92,25.04,13.17,4.38,7.15,4.06,17.07,4.06,24.23v46.34h-24.22v-48.29c0-8.78-1.3-18.53-13.82-18.53-14.47,0-14.79,13.49-14.79,25.69v41.14h-24.23v-48.78c0-6.34-.16-18.05-13.5-18.05-15.12,0-15.12,13.01-15.12,18.53v48.29h-24.22v-66.66h0Z"/><path class="g" d="M1107.56,266.13c10.57,0,17.73-6.34,17.73-28.13,0-10.89-2.12-26.01-18.05-26.01-17.56,0-17.72,20.32-17.72,27.8,0,18.37,6.18,26.34,18.04,26.34h0Zm-.32-70.24c29.75,0,42.6,20.16,42.6,43.09s-13.33,43.9-43.09,43.9c-23.41,0-41.95-14.47-41.95-43.25,0-19.84,10.08-43.74,42.44-43.74h0Z"/><path class="g" d="M1162.61,218c0-3.9-.65-15.77-1.14-20.49h22.6l.49,15.77c3.09-6.99,8.45-16.91,27.96-15.93v21.62c-24.39-2.28-25.85,10.24-25.85,20.49v40.48h-24.07v-61.95h0Z"/><path class="g" d="M1271.28,229.87c0-3.74-.32-18.37-14.3-18.37-10.57,0-14.96,8.78-15.45,18.37h29.75Zm-30.57,15.12c0,5.37,0,21.95,16.75,21.95,6.01,0,12.03-2.28,14.31-11.38h21.95c-.32,3.9-1.14,10.89-7.81,17.88-6.01,6.34-16.75,9.59-28.78,9.59-7,0-20.33-1.3-28.95-10.24-7.48-7.8-10.57-18.86-10.57-32.03s3.25-29.27,17.07-38.86c6.34-4.23,14.14-6.83,23.08-6.83,11.71,0,25.69,4.55,33.17,19.84,5.53,11.22,5.2,23.25,4.88,30.08h-55.12Z"/></svg>