<?xml version="1.0" encoding="utf-8"?>
<!-- Generator: Adobe Illustrator 26.2.1, SVG Export Plug-In . SVG Version: 6.00 Build 0)  -->
<svg version="1.1" id="a" xmlns="http://www.w3.org/2000/svg" xmlns:xlink="http://www.w3.org/1999/xlink" x="0px" y="0px"
	 viewBox="0 0 1303 407" style="enable-background:new 0 0 1303 407;" xml:space="preserve">
<style type="text/css">
	.st0{clip-path:url(#SVGID_00000103239912621600929860000018194038136832731833_);}
	.st1{fill:#FFFFFF;}
	.st2{fill:#F5333F;}
	.st3{clip-path:url(#SVGID_00000094596650838747634890000011334666553729094078_);}
	.st4{fill:#002D5D;}
	.st5{clip-path:url(#SVGID_00000132780781419394784510000001617964630107296166_);}
	.st6{fill:none;stroke:#EE3D42;stroke-width:4.5;stroke-miterlimit:10;}
</style>
<g>
	<defs>
		<rect id="SVGID_1_" width="1303" height="407.1"/>
	</defs>
	<clipPath id="SVGID_00000137113315410555379250000009662580299287244968_">
		<use xlink:href="#SVGID_1_"  style="overflow:visible;"/>
	</clipPath>
	<g style="clip-path:url(#SVGID_00000137113315410555379250000009662580299287244968_);">
		<path class="st1" d="M257.9,14.8c-68.1-27.4-109-7.3-112.1-6C145.7,9.1,0.3,132.5,0.3,132.5s29.1,3.4,51.8,25
			c28.1,26.8,33.6,61.6,33.6,61.6"/>
	</g>
</g>
<path class="st1" d="M354.4,82.6c-4-4-40.5-44.9-88-63.8l-52.6,63.6"/>
<path class="st2" d="M0,132.5c0,0,26.4,3.4,48,21.5c31.2,26.2,37.5,65.8,37.5,65.8l24.2-29.1c0,0-10.7-32.7-38.2-55.9
	c-29.2-24.5-49.7-20.6-49.7-20.6"/>
<path class="st2" d="M153.2,139.2c0,0-14-28.3-44.2-44.8s-52.2-9.9-52.2-9.9l-19.6,16.7c0,0,28.1-1.3,50.9,15.6
	c32.1,23.8,41.2,50.8,41.2,50.8"/>
<path class="st2" d="M308.2,82.6h46.2c-1.1-1.2-1.9-2-3.1-3.4c-26.3-28-52-47.3-84.8-60.6l-18.8,22.6
	C281.5,51,307.5,81.8,308.2,82.6"/>
<g>
	<defs>
		<rect id="SVGID_00000090999956928950110210000002375293066691772577_" width="1303" height="407.1"/>
	</defs>
	<clipPath id="SVGID_00000091704237189321920220000016986370584157090471_">
		<use xlink:href="#SVGID_00000090999956928950110210000002375293066691772577_"  style="overflow:visible;"/>
	</clipPath>
	<g style="clip-path:url(#SVGID_00000091704237189321920220000016986370584157090471_);">
		<path class="st2" d="M271,82.7c-9-12.1-26.2-20.4-37.5-24l-20.1,24"/>
		<path class="st4" d="M258.5,14.8c-64.3-27.1-106.4-9.2-112.9-6.3c-0.2,0.3-72.6,62.1-72.6,62.1s22.9-5.8,52.5,7.2
			c34.7,15.2,46.4,39.3,46.4,39.3"/>
	</g>
</g>
<path class="st1" d="M376.6,174.8c10.5-8.9,16.6-20.5,16.6-33.9c0-30.9-26.2-49.6-51.4-49.6h-88.9v186.4c0,0,41.5-0.1,98.2-0.1
	c27.3,0,50.1-21.7,50.1-59.4C401.2,199,391.7,184.5,376.6,174.8L376.6,174.8L376.6,174.8z M296.7,130.2c0,0,29.5-0.1,32.8-0.1
	c4.6,0,17.1,0.4,17.1,15.5s-13.5,15.1-17.5,15.1c-2.4,0-32.5-0.1-32.5-0.1L296.7,130.2L296.7,130.2L296.7,130.2z M335.7,238.4
	c-1.8,0-39-0.2-39-0.2v-38.6H336c1.7,0,19.8,0.3,19.8,19S341.7,238.4,335.7,238.4"/>
<path class="st1" d="M206.6,91.3L49.2,277.5h54.3l25.8-32.9h72.4v33h41.5V91.3H206.6L206.6,91.3z M202.3,151v54.5h-43.7"/>
<path class="st1" d="M195,65.5c-0.1,0-5.4-3.2-11.1-6.1c2.4-3.5,5.1-7.3,5.1-7.3c0-0.1,0.1-0.1,0.1-0.2s0-0.1-0.1-0.2
	c-0.1-0.1-0.2-0.2-0.4-0.1c-0.1,0-6.7,2.2-12.5,4.4c-5.5-2-10.8-3.5-10.9-3.5c-0.1,0-0.2,0-0.3,0.1c-0.1,0.1-0.1,0.2-0.1,0.2v0.1
	c0,0,0.8,4,1.4,7.7c-6,3.3-12.8,7.6-12.9,7.7c-0.1,0.1-0.1,0.2-0.1,0.3c0,0,0,0.1,0,0.1c0,0.1,0.2,0.2,0.3,0.2c0,0,8.2-0.4,14.1-0.7
	c1.2,6.8,1.8,12.7,1.8,12.7c0,0.1,0.1,0.2,0.3,0.3s0.3,0,0.4-0.2c0-0.1,3.9-7,8.3-13.5c5.6-0.5,16.5-1.4,16.5-1.4
	c0.1,0,0.2-0.1,0.3-0.2c0,0,0-0.1,0-0.1C195.1,65.6,195.1,65.5,195,65.5"/>
<path class="st1" d="M237.4,30.6c-0.1,0-6-2.5-11.9-4.6c2.2-3.3,4.5-6.7,4.5-6.7c0,0,0.1-0.1,0.1-0.2c0-0.1,0-0.1-0.1-0.2
	c-0.1-0.1-0.2-0.2-0.4-0.1c-0.1,0-7.3,2.1-13.3,4.4c-5.9-1.5-12-2.8-12.1-2.8c-0.1,0-0.2,0-0.3,0.1c0,0-0.1,0.1-0.1,0.2
	s0,0.1,0.1,0.2c0,0,1.4,2.2,3.1,6.9c-5.9,3.6-12.4,8.3-12.4,8.4c-0.1,0.1-0.1,0.2-0.1,0.3c0,0,0,0.1,0,0.1c0.1,0.1,0.2,0.2,0.3,0.2
	c0.1,0,7.1-1,14.3-1.8c1.6,6.4,2.3,11,2.3,11.1c0,0.1,0.1,0.2,0.2,0.3s0.3,0,0.3-0.1c0,0,5.6-8.4,8.1-12.2c8.2-1,17.2-2.9,17.3-2.9
	c0.1,0,0.2-0.1,0.3-0.3v0C237.6,30.7,237.5,30.6,237.4,30.6"/>
<path class="st1" d="M144.2,47.4c0-0.1-0.1-0.3-0.3-0.3c-0.1,0-4.9-0.5-10.3-0.8c2.3-2.9,4.7-5.9,4.7-5.9c0.1-0.1,0.1-0.1,0.1-0.2
	s0-0.1-0.1-0.2c-0.1-0.1-0.2-0.2-0.4-0.1c-0.1,0-6.8,3.2-12.6,6.2c-3.7,0.1-11.8,0.2-11.8,0.2c-0.2,0-0.3,0.1-0.3,0.2
	c0,0,0,0.1,0,0.1c0,0.1,0.1,0.2,0.2,0.3c0,0,1.7,1.2,3.2,4c-4.8,2.7-15.5,8.6-15.5,8.6c-0.1,0-0.2,0.2-0.2,0.3c0,0,0,0.1,0,0.1
	c0.1,0.2,0.2,0.2,0.4,0.2c8.8-2.5,12.7-3.3,15.5-3.9c0,0,0.9-0.2,1.5-0.3c1,4.2,1.1,7.7,1.1,7.8c0,0.1,0.1,0.3,0.2,0.3
	c0.1,0.1,0.3,0,0.4-0.1c0,0,7-9.1,8.3-10.8c7.9-2.5,15.7-5.4,15.8-5.4C144.2,47.7,144.2,47.6,144.2,47.4L144.2,47.4"/>
<path class="st1" d="M186.8,18.6c0-0.1-0.1-0.3-0.3-0.3c0,0-6.2-0.2-10.7-0.3c2.5-3.2,5.1-6.4,5.1-6.4c0.1-0.1,0.1-0.1,0.1-0.2
	s0-0.1-0.1-0.2c-0.1-0.1-0.2-0.1-0.4-0.1c-0.1,0.1-7.7,3.6-13.7,6.8c-6.7,0.2-11.3,0.8-11.4,0.8c-0.2,0-0.3,0.2-0.3,0.3
	s0.1,0.3,0.3,0.3c0.1,0,2.1,0.5,3.7,3c-5.3,3.4-10.8,7.5-10.9,7.6c-0.1,0.1-0.1,0.1-0.1,0.2c0,0,0,0.1,0,0.1
	c0.1,0.1,0.2,0.2,0.4,0.2c0,0,12.2-3.2,12.4-3.3c1,4.1,1,7.7,1,7.7c0,0.1,0.1,0.3,0.2,0.3c0.1,0,0.3,0,0.4-0.1c0,0,7-9.1,8.3-10.8
	c7.9-2.5,15.7-5.4,15.8-5.4C186.7,18.9,186.8,18.8,186.8,18.6C186.8,18.6,186.8,18.6,186.8,18.6"/>
<path class="st1" d="M534.5,116.8c8.1,12.5,14,25.9,14.4,41.4h-41.6c-2.3-11.1-12.2-22.1-23.4-24.8c-11.9-3.8-24.8,0.8-32.9,10.2
	c-14.5,16.8-15.5,43.9-9.5,64.4c2.8,9.5,9.1,19.3,18.5,24.4c9.5,5.1,23.5,4.7,32-2.3c8.7-7.4,12.7-16.6,14.9-26.6h41.4
	c-1.3,30-18.1,61.2-48,72.5c-29.9,9.3-64,3.4-84.4-21.4c-28.1-34.4-28.3-92.6-6.8-130.1c16.6-27.4,45.7-39.1,77.6-35.3
	C505.2,92.2,522.4,100,534.5,116.8"/>
<path class="st1" d="M544.8,270.2h2c1,0,1.6-0.1,2-0.4c0.3-0.3,0.5-0.7,0.5-1.1c0-0.3-0.1-0.6-0.3-0.8c-0.2-0.2-0.4-0.4-0.7-0.5
	c-0.3-0.1-0.9-0.2-1.7-0.2h-1.9L544.8,270.2L544.8,270.2L544.8,270.2z M543.1,276v-10.3h3.5c1.2,0,2.1,0.1,2.6,0.3
	c0.5,0.2,1,0.5,1.3,1s0.5,1,0.5,1.5c0,0.8-0.3,1.4-0.8,2c-0.5,0.6-1.2,0.9-2.1,0.9c0.4,0.1,0.7,0.3,0.9,0.5c0.4,0.4,0.9,1.1,1.5,2
	l1.2,2h-2l-0.9-1.6c-0.7-1.3-1.3-2.1-1.7-2.4c-0.3-0.2-0.8-0.4-1.3-0.4h-1v4.4L543.1,276L543.1,276z M547.3,262.7
	c-1.3,0-2.7,0.4-3.9,1c-1.3,0.7-2.3,1.7-3,3c-0.7,1.3-1.1,2.6-1.1,4s0.3,2.7,1,4c0.7,1.3,1.7,2.2,3,3c1.3,0.7,2.6,1.1,4,1.1
	s2.7-0.4,4-1.1c1.3-0.7,2.2-1.7,3-3c0.7-1.3,1.1-2.6,1.1-4s-0.4-2.7-1.1-4c-0.7-1.3-1.7-2.3-3-3C550,263,548.7,262.7,547.3,262.7
	L547.3,262.7L547.3,262.7z M547.3,261.1c1.6,0,3.2,0.4,4.7,1.2c1.5,0.8,2.7,2,3.6,3.5c0.9,1.5,1.3,3.1,1.3,4.8s-0.4,3.2-1.3,4.8
	c-0.8,1.5-2,2.7-3.5,3.5c-1.5,0.8-3.1,1.3-4.8,1.3s-3.2-0.4-4.8-1.3c-1.5-0.8-2.7-2-3.5-3.5c-0.8-1.5-1.3-3.1-1.3-4.8
	s0.4-3.3,1.3-4.8c0.9-1.5,2-2.7,3.6-3.5C544.2,261.5,545.7,261.1,547.3,261.1L547.3,261.1L547.3,261.1z"/>
<g>
	<defs>
		<rect id="SVGID_00000055702092827573518400000005692817179493508766_" width="1303" height="407.1"/>
	</defs>
	<clipPath id="SVGID_00000053530184042604015730000011374332959219457176_">
		<use xlink:href="#SVGID_00000055702092827573518400000005692817179493508766_"  style="overflow:visible;"/>
	</clipPath>
	<g style="clip-path:url(#SVGID_00000053530184042604015730000011374332959219457176_);">
		<line class="st6" x1="52.6" y1="318.3" x2="1302.8" y2="318.3"/>
	</g>
</g>
<path class="st1" d="M78.7,386l-7.2-22.2L63.8,386H78.7z M78.4,353.6l18.1,52.1H85.2l-3.8-11.2H60.9L57,405.7H46.3l18.8-52.1H78.4z"
	/>
<path class="st1" d="M109.8,395.2c0.1,2.3,1.6,5,6.1,5c3.8,0,5.6-2.2,5.6-4.3c0-1.7-0.9-3-5-4.1l-6.6-1.8c-2.9-0.9-9.2-2.7-9.2-10.1
	s6.5-11.4,15.9-11.4c7.5,0,13.5,3.5,13.8,10.7h-9.7c-0.3-4-3.5-4.3-5.2-4.3c-2.9,0-5,1.4-5,3.6c0,2.5,1.8,3,5,3.8l6.6,1.8
	c6.6,1.8,9.7,5.2,9.7,10.2c0,6.3-5.4,12.5-16.7,12.5c-4.7,0-9.2-1-12.5-4.5c-2.4-2.5-2.6-5.4-2.7-7.1H109.8L109.8,395.2z"/>
<path class="st1" d="M147,395.2c0.1,2.3,1.6,5,6.1,5c3.8,0,5.6-2.2,5.6-4.3c0-1.7-0.9-3-5-4.1l-6.6-1.8c-2.9-0.9-9.2-2.7-9.2-10.1
	s6.5-11.4,15.9-11.4c7.5,0,13.5,3.5,13.8,10.7h-9.7c-0.3-4-3.5-4.3-5.2-4.3c-2.9,0-5,1.4-5,3.6c0,2.5,1.8,3,5,3.8l6.6,1.8
	c6.6,1.8,9.7,5.2,9.7,10.2c0,6.3-5.4,12.5-16.7,12.5c-4.7,0-9.1-1-12.5-4.5c-2.4-2.5-2.6-5.4-2.7-7.1H147z"/>
<path class="st1" d="M192.6,399.6c4.7,0,7.9-2.8,7.9-12.5c0-4.8-0.9-11.5-8-11.5c-7.8,0-7.9,9-7.9,12.3
	C184.6,396,187.3,399.6,192.6,399.6L192.6,399.6L192.6,399.6z M192.4,368.4c13.2,0,18.9,8.9,18.9,19.1s-5.9,19.5-19.1,19.5
	c-10.4,0-18.6-6.4-18.6-19.2C173.6,379,178.1,368.4,192.4,368.4L192.4,368.4L192.4,368.4z"/>
<path class="st1" d="M239.7,382.2c-0.1-1.3-0.6-6.7-4.7-6.7c-5,0-5.6,7.6-5.6,11.6c0,2,0.2,8.5,2.7,11.2c1,1.1,2.1,1.2,2.9,1.2
	c1.1,0,4.5-0.5,4.9-7h10.5c-0.1,2.8-0.5,7.2-4.7,10.7c-2.6,2.2-5.8,3.4-10.4,3.4c-4.8,0-9.1-1.1-12.4-4.8c-3.2-3.7-4.6-8.5-4.6-14.3
	c0-16.6,12.2-18.9,17-18.9c6.8,0,14.8,3.8,14.8,13.6L239.7,382.2L239.7,382.2z"/>
<path class="st1" d="M256.1,369.2h10.7v36.5h-10.7V369.2L256.1,369.2z M255.8,353.7h11.4v9.3h-11.4V353.7L255.8,353.7z"/>
<path class="st1" d="M286,394.5c0,2.5,1.7,5.2,5.2,5.2c1.9,0,3.5-0.9,4.5-2.1c1.9-2.3,2-5.1,2-9C291,388,286.1,390.1,286,394.5
	L286,394.5L286,394.5z M299.2,405.7c-0.4-2.2-0.4-3.9-0.4-5c-4,5.8-8.9,5.8-10.9,5.8c-5.3,0-7.6-1.5-9.1-2.9c-2.2-2.2-3.2-5.1-3.2-8
	s1-8.2,7.7-11.3c4.5-2,10.9-2,14.4-2c0-2.4-0.1-3.5-0.5-4.8c-0.9-2.7-3.8-3-4.8-3c-1.5,0-3.1,0.6-4,2c-0.8,1.2-0.8,2.4-0.8,3.2
	h-10.5c0.1-2,0.3-5.8,4.1-8.6c3.3-2.4,7.6-3,11-3c3,0,9.4,0.5,13,4.7c2.5,3,2.5,7.3,2.5,8.9l0.1,14.6c0,3.1,0.2,6.2,0.9,9.2
	L299.2,405.7L299.2,405.7z"/>
<path class="st1" d="M338.5,405.2c-3.5,0.9-6.5,1.1-8.3,1.1c-10.7,0-10.7-6.8-10.7-9.8v-20h-7v-7.1h7v-7.1l10.6-3.9v11h8.6v7.1H330
	V393c0.1,3.3,0.1,5.4,4.8,5.4c1.6,0,2.3-0.1,3.6-0.2L338.5,405.2L338.5,405.2L338.5,405.2z"/>
<path class="st1" d="M366.9,383.5c0-1.7-0.1-8.1-6.3-8.1c-4.7,0-6.6,3.9-6.8,8.1H366.9z M353.4,390.2c0,2.4,0,9.7,7.4,9.7
	c2.7,0,5.3-1,6.3-5h9.7c-0.1,1.7-0.5,4.8-3.5,7.9c-2.7,2.8-7.4,4.2-12.8,4.2c-3.1,0-9-0.6-12.8-4.5c-3.3-3.5-4.7-8.4-4.7-14.2
	s1.4-13,7.6-17.2c2.8-1.9,6.3-3,10.2-3c5.2,0,11.4,2,14.7,8.8c2.5,5,2.3,10.3,2.2,13.3L353.4,390.2L353.4,390.2z"/>
<path class="st1" d="M400.5,399.5c3.1,0,5.6-1.9,6.8-4.1c1.6-3,1.7-6.8,1.7-8.6c0-7.1-3.1-11-7.9-11c-7.1,0-7.9,8.6-7.9,12.2
	C393.1,394.1,395.2,399.5,400.5,399.5L400.5,399.5L400.5,399.5z M408.6,353.7h10.7v46.1c0,2.2,0.1,4.5,0.3,5.9h-10.8l-0.3-5.3
	c-0.7,1.3-1.4,2.7-3.7,4.1c-2.7,1.7-5.5,1.9-7.1,1.9c-9.7,0-15.5-6.7-15.5-18.1c0-12,6.6-19.5,16.1-19.5c6.6,0,9.3,3.7,10.2,5
	L408.6,353.7L408.6,353.7L408.6,353.7z"/>
<path class="st1" d="M460.4,397.3h7.6c5.1,0,10.9,0,10.9-7c0-7.4-6.7-7.4-12-7.4h-6.4V397.3L460.4,397.3z M460.4,374.9h7.8
	c3.2,0,8.9,0,8.9-6.7s-5.5-6.5-9.2-6.5h-7.6V374.9L460.4,374.9L460.4,374.9z M449.7,353.7h19.5c3,0,8.9,0,12.8,2.5
	c4.8,3,5.8,8.1,5.8,11.1c0,2-0.4,5.3-3,7.8c-0.4,0.4-2.9,2.7-5.9,3.5v0.1c7.9,1.4,11,7.2,11,12.7c0,6.1-3.6,10.2-7.6,12.2
	c-4,2.1-11.1,2.1-13.1,2.1h-19.5L449.7,353.7L449.7,353.7L449.7,353.7z"/>
<path class="st1" d="M509.1,369.3V391c0,3.2,0,8,5.7,8c6.8,0,6.8-5.1,6.8-11.3v-18.4h11v24c0.1,7.9,0.2,8.8,0.2,9.7
	c0.1,1,0.1,1.7,0.3,2.7h-10.4l-0.4-4.8c-1.1,1.6-3.8,5.8-10.7,5.8c-4.9,0-8.9-2.2-11-4.9c-2.4-3-2.4-8-2.4-9.8v-22.6L509.1,369.3
	L509.1,369.3z"/>
<path class="st1" d="M542.4,369.2H553v36.5h-10.7V369.2L542.4,369.2z M542,353.7h11.4v9.3H542V353.7L542,353.7z"/>
<polygon class="st1" points="563.6,353.6 574.2,353.6 574.2,405.7 563.6,405.7 563.6,353.6 "/>
<path class="st1" d="M599.2,399.5c3.1,0,5.6-1.9,6.8-4.1c1.6-3,1.7-6.8,1.7-8.6c0-7.1-3.1-11-7.9-11c-7.1,0-7.9,8.6-7.9,12.2
	C591.9,394.1,593.9,399.5,599.2,399.5L599.2,399.5L599.2,399.5z M607.4,353.7h10.7v46.1c0,2.2,0.1,4.5,0.3,5.9h-10.8l-0.3-5.3
	c-0.7,1.3-1.4,2.7-3.7,4.1c-2.7,1.7-5.5,1.9-7.1,1.9c-9.7,0-15.5-6.7-15.5-18.1c0-12,6.6-19.5,16.1-19.5c6.6,0,9.3,3.7,10.2,5
	L607.4,353.7L607.4,353.7L607.4,353.7z"/>
<path class="st1" d="M650.6,383.5c0-1.7-0.1-8.1-6.3-8.1c-4.7,0-6.6,3.9-6.8,8.1H650.6L650.6,383.5z M637,390.2c0,2.4,0,9.7,7.4,9.7
	c2.7,0,5.3-1,6.3-5h9.7c-0.2,1.7-0.5,4.8-3.5,7.9c-2.7,2.8-7.4,4.2-12.8,4.2c-3.1,0-9-0.6-12.8-4.5c-3.3-3.5-4.7-8.4-4.7-14.2
	s1.5-13,7.6-17.2c2.8-1.9,6.3-3,10.2-3c5.2,0,11.4,2,14.7,8.8c2.5,5,2.3,10.3,2.2,13.3L637,390.2L637,390.2z"/>
<path class="st1" d="M668.2,378.2c0-1.7-0.3-7-0.5-9.1h10l0.2,7c1.4-3.1,3.8-7.5,12.4-7.1v9.6c-10.8-1-11.5,4.5-11.5,9.1v17.9h-10.7
	L668.2,378.2L668.2,378.2L668.2,378.2z"/>
<path class="st1" d="M703.4,395.2c0.1,2.3,1.6,5,6,5c3.8,0,5.6-2.2,5.6-4.3c0-1.7-0.9-3-5-4.1l-6.6-1.8c-3-0.9-9.2-2.7-9.2-10.1
	s6.5-11.4,15.9-11.4c7.5,0,13.5,3.5,13.8,10.7h-9.7c-0.3-4-3.5-4.3-5.2-4.3c-2.9,0-5,1.4-5,3.6c0,2.5,1.8,3,5,3.8l6.5,1.8
	c6.6,1.8,9.7,5.2,9.7,10.2c0,6.3-5.4,12.5-16.7,12.5c-4.7,0-9.2-1-12.5-4.5c-2.4-2.5-2.6-5.4-2.7-7.1H703.4L703.4,395.2z"/>
<path class="st1" d="M763,394.5c0,2.5,1.7,5.2,5.2,5.2c1.9,0,3.5-0.9,4.5-2.1c1.9-2.3,2-5.1,2-9C767.9,388,763,390.1,763,394.5
	L763,394.5L763,394.5z M776.1,405.7c-0.4-2.2-0.4-3.9-0.4-5c-4,5.8-8.9,5.8-10.9,5.8c-5.3,0-7.6-1.5-9.1-2.9c-2.2-2.2-3.2-5.1-3.2-8
	s1-8.2,7.7-11.3c4.5-2,10.9-2,14.4-2c0-2.4-0.1-3.5-0.5-4.8c-0.9-2.7-3.8-3-4.8-3c-1.5,0-3.1,0.6-4,2c-0.8,1.2-0.8,2.4-0.8,3.2
	h-10.5c0.1-2,0.3-5.8,4.1-8.6c3.3-2.4,7.6-3,11-3c3,0,9.4,0.5,13,4.7c2.5,3,2.5,7.3,2.5,8.9l0.1,14.6c0,3.1,0.2,6.2,0.9,9.2
	L776.1,405.7L776.1,405.7z"/>
<path class="st1" d="M794.2,375.8c0-0.1,0-4.1-0.2-6.6h10.2l0.3,5.5c1-1.7,3.9-6.3,11.8-6.3c7.1,0,10.2,4.3,11.1,6.8
	c0.8,2.2,1,4.1,1,10.9v19.7h-10.9v-22.6c0-1.5,0-2.8-0.6-4c-0.8-1.6-2.5-3.1-5.2-3.1c-2.3,0-4.4,1.1-5.5,2.8
	c-0.7,0.9-1.3,2.7-1.3,5.5v21.3h-10.7L794.2,375.8L794.2,375.8L794.2,375.8z"/>
<path class="st1" d="M855.1,399.5c3.1,0,5.6-1.9,6.8-4.1c1.6-3,1.7-6.8,1.7-8.6c0-7.1-3.1-11-7.9-11c-7.1,0-7.9,8.6-7.9,12.2
	C847.8,394.1,849.8,399.5,855.1,399.5L855.1,399.5L855.1,399.5z M863.3,353.7H874v46.1c0,2.2,0.2,4.5,0.3,5.9h-10.8l-0.3-5.3
	c-0.7,1.3-1.4,2.7-3.7,4.1c-2.7,1.7-5.5,1.9-7.1,1.9c-9.7,0-15.5-6.7-15.5-18.1c0-12,6.6-19.5,16.1-19.5c6.6,0,9.3,3.7,10.2,5V353.7
	L863.3,353.7L863.3,353.7z"/>
<path class="st1" d="M933.7,370.6c-0.2-1.8-0.9-9.1-8.4-9.1c-8.3,0-11.7,8.6-11.7,19.4c0,3.1,0,17.9,10.9,17.9c4.7,0,9.2-3,9.4-9.9
	h11.8c-0.2,3.1-0.5,7.9-4.7,12.2c-4.6,4.8-10.5,5.8-15.2,5.8c-17.9,0-23.8-13.3-23.8-26.2c0-16.5,9.2-27.5,23.8-27.5
	c11.4,0,19.4,6.9,19.4,17.3H933.7L933.7,370.6z"/>
<path class="st1" d="M969.2,399.6c4.7,0,7.9-2.8,7.9-12.5c0-4.8-0.9-11.5-8-11.5c-7.8,0-7.8,9-7.8,12.3
	C961.2,396,963.9,399.6,969.2,399.6L969.2,399.6L969.2,399.6z M969,368.4c13.2,0,18.9,8.9,18.9,19.1S982,407,968.8,407
	c-10.4,0-18.6-6.4-18.6-19.2C950.2,379,954.7,368.4,969,368.4L969,368.4L969,368.4z"/>
<path class="st1" d="M997.2,375.8c0-0.1,0-4.1-0.2-6.6h10.2l0.3,5.5c1-1.7,3.9-6.3,11.8-6.3c7.1,0,10.2,4.3,11.1,6.8
	c0.8,2.2,1,4.1,1,10.9v19.7h-10.9v-22.6c0-1.5,0-2.8-0.6-4c-0.8-1.6-2.5-3.1-5.2-3.1c-2.3,0-4.4,1.1-5.5,2.8
	c-0.7,0.9-1.3,2.7-1.3,5.5v21.3h-10.7L997.2,375.8L997.2,375.8L997.2,375.8z"/>
<path class="st1" d="M1062.1,405.2c-3.4,0.9-6.6,1.1-8.3,1.1c-10.7,0-10.7-6.8-10.7-9.8v-20h-7v-7.1h7v-7.1l10.6-3.9v11h8.7v7.1
	h-8.7V393c0.1,3.3,0.1,5.4,4.8,5.4c1.6,0,2.3-0.1,3.6-0.2L1062.1,405.2L1062.1,405.2L1062.1,405.2z"/>
<path class="st1" d="M1069.9,378.2c0-1.7-0.3-7-0.5-9.1h10l0.2,7c1.4-3.1,3.8-7.5,12.4-7.1v9.6c-10.8-1-11.5,4.5-11.5,9.1v17.9
	h-10.7V378.2L1069.9,378.2L1069.9,378.2z"/>
<path class="st1" d="M1104.9,394.5c0,2.5,1.7,5.2,5.2,5.2c1.9,0,3.5-0.9,4.5-2.1c1.9-2.3,2-5.1,2-9
	C1109.8,388,1104.9,390.1,1104.9,394.5L1104.9,394.5L1104.9,394.5z M1118,405.7c-0.4-2.2-0.4-3.9-0.4-5c-4,5.8-8.9,5.8-10.9,5.8
	c-5.3,0-7.6-1.5-9.1-2.9c-2.2-2.2-3.2-5.1-3.2-8s1-8.2,7.7-11.3c4.5-2,10.9-2,14.4-2c0-2.4-0.1-3.5-0.5-4.8c-0.9-2.7-3.8-3-4.8-3
	c-1.5,0-3.1,0.6-4,2c-0.8,1.2-0.8,2.4-0.8,3.2h-10.4c0.1-2,0.3-5.8,4.1-8.6c3.3-2.4,7.6-3,11-3c3,0,9.4,0.5,13,4.7
	c2.4,3,2.5,7.3,2.5,8.9l0.1,14.6c0,3.1,0.2,6.2,0.9,9.2L1118,405.7L1118,405.7z"/>
<path class="st1" d="M1156.6,382.2c-0.2-1.3-0.6-6.7-4.7-6.7c-5,0-5.6,7.6-5.6,11.6c0,2,0.2,8.5,2.7,11.2c1,1.1,2.1,1.2,2.9,1.2
	c1.2,0,4.5-0.5,4.9-7h10.5c-0.1,2.8-0.5,7.2-4.7,10.7c-2.6,2.2-5.8,3.4-10.4,3.4c-4.8,0-9.1-1.1-12.4-4.8c-3.2-3.7-4.6-8.5-4.6-14.3
	c0-16.6,12.2-18.9,17-18.9c6.8,0,14.8,3.8,14.8,13.6L1156.6,382.2L1156.6,382.2z"/>
<path class="st1" d="M1194.5,405.2c-3.5,0.9-6.6,1.1-8.3,1.1c-10.7,0-10.7-6.8-10.7-9.8v-20h-7v-7.1h7v-7.1l10.6-3.9v11h8.7v7.1
	h-8.7V393c0.1,3.3,0.1,5.4,4.8,5.4c1.6,0,2.3-0.1,3.6-0.2L1194.5,405.2L1194.5,405.2L1194.5,405.2z"/>
<path class="st1" d="M1218.2,399.6c4.7,0,7.9-2.8,7.9-12.5c0-4.8-0.9-11.5-8-11.5c-7.8,0-7.9,9-7.9,12.3
	C1210.2,396,1212.9,399.6,1218.2,399.6L1218.2,399.6L1218.2,399.6z M1218,368.4c13.2,0,18.9,8.9,18.9,19.1s-5.9,19.5-19.1,19.5
	c-10.4,0-18.6-6.4-18.6-19.2C1199.2,379,1203.7,368.4,1218,368.4L1218,368.4L1218,368.4z"/>
<path class="st1" d="M1244.6,378.2c0-1.7-0.3-7-0.5-9.1h10l0.2,7c1.4-3.1,3.8-7.5,12.4-7.1v9.6c-10.8-1-11.5,4.5-11.5,9.1v17.9
	h-10.7V378.2L1244.6,378.2L1244.6,378.2z"/>
<path class="st1" d="M1281.2,395.2c0.1,2.3,1.6,5,6.1,5c3.8,0,5.6-2.2,5.6-4.3c0-1.7-0.9-3-5.1-4.1l-6.6-1.8
	c-2.9-0.9-9.2-2.7-9.2-10.1s6.5-11.4,15.9-11.4c7.5,0,13.6,3.5,13.8,10.7h-9.7c-0.3-4-3.5-4.3-5.2-4.3c-2.9,0-5,1.4-5,3.6
	c0,2.5,1.8,3,5,3.8l6.6,1.8c6.6,1.8,9.7,5.2,9.7,10.2c0,6.3-5.4,12.5-16.7,12.5c-4.7,0-9.2-1-12.5-4.5c-2.4-2.5-2.6-5.4-2.7-7.1
	H1281.2L1281.2,395.2z"/>
<path class="st2" d="M624.7,108.3c-0.1-1.5-0.2-3.5-1.6-5.7c-2.3-3.8-6.8-4.4-9.5-4.4c-13.8,0-16.5,12.8-16.5,21.5
	c0,3.8,0.5,10.7,4.7,15.2c2.8,3.1,6.6,4.9,13.3,4.9c5.9,0,7.9-0.7,9.2-1.1v-11.9h-11v-9.4h23.1v28.3c-3.5,1.2-9.3,3.1-20.7,3.1
	c-12.9,0-19.6-3.1-24.1-7.5c-6.3-6.2-7.5-15.2-7.5-21.2c0-20.1,12.5-30.8,29.7-30.8c7.3,0,14.8,2,19.3,7.1c3.8,4.3,4,8.8,4.1,11.8
	L624.7,108.3L624.7,108.3z"/>
<path class="st2" d="M645.4,117.8c0-1.9-0.3-7.6-0.5-9.9h10.9l0.2,7.6c1.5-3.4,4.1-8.2,13.5-7.7v10.4c-11.8-1.1-12.5,4.9-12.5,9.9
	v19.5h-11.6L645.4,117.8L645.4,117.8L645.4,117.8z"/>
<path class="st2" d="M698.3,123.5c0-1.8-0.2-8.9-6.9-8.9c-5.1,0-7.2,4.2-7.4,8.9H698.3z M683.6,130.8c0,2.6,0,10.6,8.1,10.6
	c2.9,0,5.8-1.1,6.9-5.5h10.6c-0.2,1.9-0.5,5.2-3.8,8.6c-2.9,3.1-8.1,4.6-13.9,4.6c-3.4,0-9.8-0.6-14-4.9c-3.6-3.8-5.1-9.1-5.1-15.4
	s1.6-14.1,8.2-18.7c3.1-2,6.8-3.3,11.1-3.3c5.7,0,12.4,2.2,16,9.6c2.7,5.4,2.5,11.2,2.3,14.5L683.6,130.8L683.6,130.8z"/>
<path class="st2" d="M725.7,135.4c0,2.7,1.8,5.6,5.7,5.6c2.1,0,3.8-1,4.9-2.3c2-2.5,2.2-5.6,2.2-9.8
	C731,128.3,725.7,130.7,725.7,135.4L725.7,135.4L725.7,135.4z M739.9,147.6c-0.4-2.4-0.4-4.2-0.4-5.4c-4.4,6.4-9.6,6.4-11.8,6.4
	c-5.7,0-8.3-1.6-9.9-3.1c-2.3-2.4-3.4-5.6-3.4-8.7s1.1-8.9,8.4-12.3c4.9-2.2,11.8-2.2,15.7-2.2c0-2.6-0.1-3.8-0.5-5.2
	c-1-2.9-4.1-3.3-5.2-3.3c-1.7,0-3.4,0.7-4.4,2.2c-0.9,1.3-0.9,2.6-0.9,3.5h-11.4c0.1-2.1,0.3-6.3,4.5-9.3c3.6-2.6,8.2-3.2,12-3.2
	c3.3,0,10.2,0.6,14.1,5.1c2.7,3.2,2.8,7.9,2.8,9.7l0.1,15.9c0,3.4,0.2,6.7,0.9,10L739.9,147.6L739.9,147.6z"/>
<path class="st2" d="M781.5,147.1c-3.8,1-7.1,1.3-9,1.3c-11.7,0-11.7-7.4-11.7-10.7V116h-7.6v-7.7h7.6v-7.8l11.5-4.2v12h9.4v7.7
	h-9.4v17.9c0.1,3.6,0.1,5.9,5.2,5.9c1.7,0,2.5-0.1,3.9-0.2V147.1L781.5,147.1L781.5,147.1z"/>
<path class="st2" d="M810.6,123.5c0-1.8-0.2-8.9-6.9-8.9c-5.1,0-7.2,4.2-7.4,8.9H810.6z M795.9,130.8c0,2.6,0,10.6,8.1,10.6
	c2.9,0,5.8-1.1,6.9-5.5h10.6c-0.2,1.9-0.5,5.2-3.8,8.6c-2.9,3.1-8.1,4.6-13.9,4.6c-3.4,0-9.8-0.6-14-4.9c-3.6-3.8-5.1-9.1-5.1-15.4
	s1.6-14.1,8.2-18.7c3.1-2,6.8-3.3,11.1-3.3c5.7,0,12.4,2.2,16,9.6c2.7,5.4,2.5,11.2,2.3,14.5L795.9,130.8L795.9,130.8z"/>
<path class="st2" d="M828.7,117.8c0-1.9-0.3-7.6-0.5-9.9h10.9l0.2,7.6c1.5-3.4,4.1-8.2,13.5-7.7v10.4c-11.8-1.1-12.5,4.9-12.5,9.9
	v19.5h-11.6L828.7,117.8L828.7,117.8L828.7,117.8z"/>
<path class="st2" d="M616.4,261.1h17.1c11.5,0,24.5,0,24.5-15.8c0-16.8-15.1-16.8-27.2-16.8h-14.5V261.1L616.4,261.1z M616.4,210.4
	H634c7.2,0,20.2,0,20.2-15.1s-12.4-14.6-20.7-14.6h-17.1L616.4,210.4L616.4,210.4L616.4,210.4z M592.3,162.6h43.9
	c6.8,0,20,0,28.9,5.5c10.7,6.8,13.2,18.2,13.2,25c0,4.4-0.8,12-6.8,17.6c-0.8,1-6.5,6.2-13.3,8v0.3c17.9,3.2,24.9,16.3,24.9,28.6
	c0,13.8-8.1,23.1-17.2,27.6c-9.1,4.7-25,4.7-29.6,4.7h-43.9L592.3,162.6L592.3,162.6L592.3,162.6z"/>
<path class="st2" d="M714.7,254.6c0,5.5,3.7,11.7,11.7,11.7c4.4,0,8-2.1,10.2-4.7c4.2-5.2,4.5-11.5,4.5-20.3
	C725.8,240,714.7,244.8,714.7,254.6L714.7,254.6L714.7,254.6z M744.3,279.9c-0.8-5-0.8-8.8-0.8-11.2c-9.1,13.2-20,13.2-24.5,13.2
	c-11.9,0-17.2-3.4-20.5-6.5c-4.9-4.9-7.2-11.5-7.2-18s2.3-18.5,17.4-25.5c10.1-4.6,24.5-4.6,32.5-4.6c0-5.4-0.2-8-1.1-10.9
	c-2.1-6-8.5-6.8-10.7-6.8c-3.4,0-7,1.5-9.1,4.6c-1.8,2.8-1.8,5.4-1.8,7.3h-23.6c0.2-4.4,0.7-13.2,9.3-19.4
	c7.5-5.4,17.1-6.7,24.9-6.7c6.8,0,21.1,1.1,29.3,10.6c5.5,6.7,5.7,16.4,5.7,20.2l0.2,33c0,7,0.5,14,2,20.8L744.3,279.9L744.3,279.9z
	"/>
<polygon class="st2" points="780.6,162.4 804.6,162.4 804.6,280 780.6,280 780.6,162.4 "/>
<path class="st2" d="M870.3,278.8c-7.8,2.1-14.8,2.6-18.7,2.6c-24.2,0-24.2-15.3-24.2-22.1v-45h-15.8v-15.9h15.8v-16.1l23.9-8.8
	v24.9h19.5v15.9h-19.5v37.1c0.2,7.5,0.2,12.2,10.9,12.2c3.6,0,5.2-0.2,8.1-0.5L870.3,278.8L870.3,278.8L870.3,278.8z"/>
<path class="st2" d="M880.5,197.7h24.1v82.3h-24.1V197.7L880.5,197.7L880.5,197.7z M879.7,162.6h25.7v21h-25.7V162.6L879.7,162.6z"
	/>
<path class="st2" d="M921.4,213.3c0-5.2-0.3-10.2-0.8-15.4h23.2l0.8,10.6c2.6-3.6,8.9-12.4,25.4-12.4c18.9,0,24.2,11.5,25.9,15.4
	c6.8-13.2,17.9-15.3,26.3-15.3c16.6,0,23.2,9.9,25,13.2c4.4,7.1,4.1,17.1,4.1,24.2v46.3h-24.2v-48.3c0-8.8-1.3-18.5-13.8-18.5
	c-14.5,0-14.8,13.5-14.8,25.7V280h-24.2v-48.8c0-6.3-0.2-18.1-13.5-18.1c-15.1,0-15.1,13-15.1,18.5v48.3h-24.2L921.4,213.3
	L921.4,213.3L921.4,213.3z"/>
<path class="st2" d="M1107.6,266.1c10.6,0,17.7-6.3,17.7-28.1c0-10.9-2.1-26-18.1-26c-17.6,0-17.7,20.3-17.7,27.8
	C1089.5,258.2,1095.7,266.1,1107.6,266.1L1107.6,266.1z M1107.2,195.9c29.8,0,42.6,20.2,42.6,43.1s-13.3,43.9-43.1,43.9
	c-23.4,0-41.9-14.5-41.9-43.2C1064.8,219.8,1074.9,195.9,1107.2,195.9L1107.2,195.9L1107.2,195.9z"/>
<path class="st2" d="M1162.6,218c0-3.9-0.7-15.8-1.1-20.5h22.6l0.5,15.8c3.1-7,8.4-16.9,28-15.9V219c-24.4-2.3-25.8,10.2-25.8,20.5
	v40.5h-24.1L1162.6,218L1162.6,218L1162.6,218z"/>
<path class="st2" d="M1271.3,229.9c0-3.7-0.3-18.4-14.3-18.4c-10.6,0-15,8.8-15.4,18.4H1271.3z M1240.7,245c0,5.4,0,22,16.8,22
	c6,0,12-2.3,14.3-11.4h21.9c-0.3,3.9-1.1,10.9-7.8,17.9c-6,6.3-16.8,9.6-28.8,9.6c-7,0-20.3-1.3-28.9-10.2
	c-7.5-7.8-10.6-18.9-10.6-32s3.2-29.3,17.1-38.9c6.3-4.2,14.1-6.8,23.1-6.8c11.7,0,25.7,4.6,33.2,19.8c5.5,11.2,5.2,23.2,4.9,30.1
	L1240.7,245L1240.7,245z"/>
</svg>
