<?xml version="1.0" encoding="UTF-8"?><svg id="Layer_2" xmlns="http://www.w3.org/2000/svg" viewBox="0 0 178.24 208.6"><defs><style>.cls-1{fill:#fff;}.cls-2{fill:#c42127;}</style></defs><g id="Layer_1-2"><g><polygon class="cls-2" points="62.06 14.04 111.55 0 111.49 41.25 62.06 46.87 62.06 14.04"/><polygon class="cls-1" points="62.06 53.15 111.55 48.06 111.49 141.97 62.06 128.96 62.06 53.15"/><polygon class="cls-1" points="111.55 148.61 62.06 134.16 62.06 157.02 111.55 176.69 111.55 148.61"/><polygon class="cls-2" points="25.38 56.47 25.38 164.04 0 150.89 0 58.45 25.38 56.47"/><polygon class="cls-2" points="117.12 13.06 142.72 19.02 142.72 56.24 117.04 54.56 117.12 13.06"/><polygon class="cls-1" points="117.04 116.87 142.72 112.36 142.72 164.52 117.04 175.04 117.04 116.87"/><polygon class="cls-2" points="149.33 62.79 178.24 64.12 178.24 174.23 149.33 189.21 149.33 62.79"/><polygon class="cls-1" points="117.04 61.37 142.72 62.68 142.72 105.9 117.04 109.74 117.04 61.37"/><polygon class="cls-2" points="111.55 183.66 111.55 183.49 62.06 162.9 31.33 150.4 31.33 167.1 62.06 183.21 111.55 208.6 142.72 192.42 142.72 170.29 111.55 183.66"/><polygon class="cls-2" points="30.67 32.11 54.56 26.6 54.56 70.15 30.67 70.33 30.67 32.11"/><polygon class="cls-1" points="30.61 76.17 54.58 76.78 54.59 154.26 30.64 144.86 30.61 76.17"/></g></g></svg>